<mxfile host="app.diagrams.net" modified="2021-09-12T08:22:42.068Z" agent="5.0 (Macintosh; Intel Mac OS X 10_15_3) AppleWebKit/537.36 (KHTML, like Gecko) Chrome/93.0.4577.63 Safari/537.36" etag="pNyPF6xdTrJm7oC-ScRN" version="15.1.4" type="github">
  <diagram id="RTI63qvrAECC6O2_Tr-F" name="Page-1">
    <mxGraphModel dx="926" dy="553" grid="1" gridSize="10" guides="1" tooltips="1" connect="1" arrows="1" fold="1" page="1" pageScale="1" pageWidth="827" pageHeight="1169" math="0" shadow="0">
      <root>
        <mxCell id="0" />
        <mxCell id="1" parent="0" />
        <mxCell id="yC3KHR83Ugj_HEIKzo0t-1" value="DB" style="shape=cylinder3;whiteSpace=wrap;html=1;boundedLbl=1;backgroundOutline=1;size=15;fillColor=#d5e8d4;strokeColor=#82b366;" vertex="1" parent="1">
          <mxGeometry x="410" y="440" width="60" height="80" as="geometry" />
        </mxCell>
        <mxCell id="yC3KHR83Ugj_HEIKzo0t-2" value="" style="shape=actor;whiteSpace=wrap;html=1;fillColor=#dae8fc;strokeColor=#6c8ebf;" vertex="1" parent="1">
          <mxGeometry y="200" width="40" height="60" as="geometry" />
        </mxCell>
        <mxCell id="yC3KHR83Ugj_HEIKzo0t-3" value="Search-Client-Api" style="rounded=1;whiteSpace=wrap;html=1;fillColor=#ffe6cc;strokeColor=#d79b00;" vertex="1" parent="1">
          <mxGeometry x="110" y="205" width="110" height="60" as="geometry" />
        </mxCell>
        <mxCell id="yC3KHR83Ugj_HEIKzo0t-10" value="" style="whiteSpace=wrap;html=1;aspect=fixed;dashed=1;" vertex="1" parent="1">
          <mxGeometry x="310" y="120" width="250" height="250" as="geometry" />
        </mxCell>
        <mxCell id="yC3KHR83Ugj_HEIKzo0t-13" value="Search-Proxy-1" style="rounded=1;whiteSpace=wrap;html=1;fillColor=#ffe6cc;strokeColor=#d79b00;" vertex="1" parent="1">
          <mxGeometry x="380" y="205" width="120" height="60" as="geometry" />
        </mxCell>
        <mxCell id="yC3KHR83Ugj_HEIKzo0t-14" value="Search-Proxy-2" style="rounded=1;whiteSpace=wrap;html=1;fillColor=#ffe6cc;strokeColor=#d79b00;" vertex="1" parent="1">
          <mxGeometry x="380" y="265" width="120" height="60" as="geometry" />
        </mxCell>
        <mxCell id="yC3KHR83Ugj_HEIKzo0t-17" value="Search-Proxy-0" style="rounded=1;whiteSpace=wrap;html=1;fillColor=#ffe6cc;strokeColor=#d79b00;" vertex="1" parent="1">
          <mxGeometry x="380" y="145" width="120" height="60" as="geometry" />
        </mxCell>
        <mxCell id="yC3KHR83Ugj_HEIKzo0t-22" value="Elasticsearch-Cluster-0" style="rounded=1;whiteSpace=wrap;html=1;fillColor=#1ba1e2;strokeColor=#006EAF;fontColor=#ffffff;" vertex="1" parent="1">
          <mxGeometry x="640" y="120" width="130" height="70" as="geometry" />
        </mxCell>
        <mxCell id="yC3KHR83Ugj_HEIKzo0t-24" value="Elasticsearch-Cluster-1" style="rounded=1;whiteSpace=wrap;html=1;fillColor=#1ba1e2;strokeColor=#006EAF;fontColor=#ffffff;" vertex="1" parent="1">
          <mxGeometry x="640" y="200" width="130" height="70" as="geometry" />
        </mxCell>
        <mxCell id="yC3KHR83Ugj_HEIKzo0t-25" value="Elasticsearch-Cluster-2" style="rounded=1;whiteSpace=wrap;html=1;fillColor=#1ba1e2;strokeColor=#006EAF;fontColor=#ffffff;" vertex="1" parent="1">
          <mxGeometry x="640" y="280" width="130" height="70" as="geometry" />
        </mxCell>
        <mxCell id="yC3KHR83Ugj_HEIKzo0t-31" value="" style="shape=singleArrow;whiteSpace=wrap;html=1;fillColor=#dae8fc;strokeColor=#6c8ebf;" vertex="1" parent="1">
          <mxGeometry x="560" y="140" width="80" height="30" as="geometry" />
        </mxCell>
        <mxCell id="yC3KHR83Ugj_HEIKzo0t-32" value="" style="shape=singleArrow;whiteSpace=wrap;html=1;fillColor=#dae8fc;strokeColor=#6c8ebf;" vertex="1" parent="1">
          <mxGeometry x="560" y="220" width="80" height="30" as="geometry" />
        </mxCell>
        <mxCell id="yC3KHR83Ugj_HEIKzo0t-33" value="" style="shape=singleArrow;whiteSpace=wrap;html=1;fillColor=#dae8fc;strokeColor=#6c8ebf;" vertex="1" parent="1">
          <mxGeometry x="560" y="300" width="80" height="30" as="geometry" />
        </mxCell>
        <mxCell id="yC3KHR83Ugj_HEIKzo0t-34" value="" style="html=1;shadow=0;dashed=0;align=center;verticalAlign=middle;shape=mxgraph.arrows2.arrow;dy=0.6;dx=40;direction=south;notch=0;fillColor=#dae8fc;strokeColor=#6c8ebf;" vertex="1" parent="1">
          <mxGeometry x="430" y="370" width="20" height="70" as="geometry" />
        </mxCell>
        <mxCell id="yC3KHR83Ugj_HEIKzo0t-38" value="" style="shape=singleArrow;whiteSpace=wrap;html=1;fillColor=#dae8fc;strokeColor=#6c8ebf;" vertex="1" parent="1">
          <mxGeometry x="40" y="230" width="70" height="20" as="geometry" />
        </mxCell>
        <mxCell id="yC3KHR83Ugj_HEIKzo0t-39" value="AccessKey" style="text;html=1;align=center;verticalAlign=middle;resizable=0;points=[];autosize=1;strokeColor=none;fillColor=none;" vertex="1" parent="1">
          <mxGeometry x="35" y="210" width="70" height="20" as="geometry" />
        </mxCell>
        <mxCell id="yC3KHR83Ugj_HEIKzo0t-40" value="" style="shape=singleArrow;whiteSpace=wrap;html=1;fillColor=#dae8fc;strokeColor=#6c8ebf;" vertex="1" parent="1">
          <mxGeometry x="220" y="225" width="90" height="20" as="geometry" />
        </mxCell>
        <mxCell id="yC3KHR83Ugj_HEIKzo0t-41" value="Rpc-Async" style="text;html=1;align=center;verticalAlign=middle;resizable=0;points=[];autosize=1;strokeColor=none;fillColor=none;" vertex="1" parent="1">
          <mxGeometry x="225" y="210" width="70" height="20" as="geometry" />
        </mxCell>
      </root>
    </mxGraphModel>
  </diagram>
</mxfile>
